<?xml version="1.0" encoding="UTF-8" standalone="no"?>
<svg
   width="1200"
   height="1200"
   xml:space="preserve"
   overflow="hidden"
   version="1.1"
   id="svg436"
   sodipodi:docname="microwalk.svg"
   inkscape:version="1.2 (dc2aedaf03, 2022-05-15)"
   inkscape:export-filename="microwalk512.png"
   inkscape:export-xdpi="40.959999"
   inkscape:export-ydpi="40.959999"
   xmlns:inkscape="http://www.inkscape.org/namespaces/inkscape"
   xmlns:sodipodi="http://sodipodi.sourceforge.net/DTD/sodipodi-0.dtd"
   xmlns="http://www.w3.org/2000/svg"
   xmlns:svg="http://www.w3.org/2000/svg"
   xmlns:rdf="http://www.w3.org/1999/02/22-rdf-syntax-ns#"
   xmlns:cc="http://creativecommons.org/ns#"
   xmlns:dc="http://purl.org/dc/elements/1.1/"><title
     id="title16814">Microwalk Project</title><sodipodi:namedview
     id="namedview438"
     pagecolor="#ffffff"
     bordercolor="#000000"
     borderopacity="0.25"
     inkscape:showpageshadow="2"
     inkscape:pageopacity="1"
     inkscape:pagecheckerboard="0"
     inkscape:deskcolor="#d1d1d1"
     showgrid="true"
     inkscape:zoom="0.35194881"
     inkscape:cx="2148.0397"
     inkscape:cy="1312.6909"
     inkscape:window-width="2560"
     inkscape:window-height="1377"
     inkscape:window-x="1912"
     inkscape:window-y="-8"
     inkscape:window-maximized="1"
     inkscape:current-layer="g434"
     showguides="true"><inkscape:grid
       type="xygrid"
       id="grid8191"
       originx="0"
       originy="0" /></sodipodi:namedview><defs
     id="defs224"><clipPath
       id="clip0"><rect
         x="149"
         y="266"
         width="3438"
         height="1579"
         id="rect221" /></clipPath><clipPath
       clipPathUnits="userSpaceOnUse"
       id="clipPath8215"><path
         d="m 3080.9419,1106.7402 c 0,-100.9307 82.0623,-182.75013 183.3,-182.75013 101.2376,0 183.3,81.81943 183.3,182.75013 0,100.9306 -82.0624,182.7499 -183.3,182.7499 -101.2377,0 -183.3,-81.8193 -183.3,-182.7499 z"
         stroke="#000000"
         stroke-width="22.9167"
         stroke-miterlimit="8"
         fill="none"
         fill-rule="evenodd"
         id="path8217"
         style="fill:#00ff00;fill-opacity:1;stroke-width:0;stroke-dasharray:none" /></clipPath></defs><g
     clip-path="url(#clip0)"
     transform="translate(-149,-266)"
     id="g434"><path
       d="m 449.1951,1321.3628 c -0.18,0.06 -0.37,0.13 -0.55,0.21 -7.11,3.63 -8.76,12.85 -7.18,20.04 1.1,6.62 6.44,13.91 13.86,13.17 1.07,-0.13 2.1,-0.54 3,-1.12 7.52,-5.43 8.19,-16.55 4.41,-24.41 -2.01,-5.21 -7.83,-9.75 -13.54,-7.89 z m -31.72,10.25 c -4.63,1.57 -6.79,7.44 -6.15,12.12 1.19,9.3 8.61,19.01 18.66,18.94 0.92,-0.08 1.82,-0.34 2.65,-0.75 5.88,-2.96 6.35,-10.74 4.34,-16.28 -2.5,-7.36 -9.02,-14.73 -17.36,-14.42 -0.77,0.04 -1.48,0.17 -2.14,0.4 z m 59.96,8.8 c -7.92,3 -10.95,12.78 -9.39,20.55 0.62,5.76 5.77,12.12 12.1,10.62 8.6,-2.79 11.61,-13.85 9.39,-21.87 -1.09,-5.42 -6.17,-10.82 -12.1,-9.3 z m -70.12,23.8 c -3.44,1.04 -6.18,4.15 -6.21,7.99 -0.09,10.27 9.61,20.23 20.11,19.12 4.35,-0.58 6.99,-4.88 6.83,-9.02 -0.37,-8.84 -7.78,-16.92 -16.47,-18.28 -1.45,-0.31 -2.91,-0.22 -4.26,0.19 z m 41.42,5.48 c -6.73,2.11 -12.51,7.66 -15.28,14.1 -2.87,7.4 -4.58,15.5 -3.76,23.45 -0.15,5.96 5.93,10.87 11.7,9.11 6.99,-1.96 11.46,-8.57 18.24,-11.07 5.57,-2.71 11.75,-1.3 17.62,-0.95 5.07,0.52 11.03,-2.14 11.81,-7.66 0.27,-5.47 -4,-9.88 -7.55,-13.56 -6.67,-5.68 -13.77,-11.62 -22.48,-13.76 -3.5,-0.9 -7.01,-0.69 -10.3,0.34 z"
       fill="#426598"
       fill-rule="evenodd"
       id="path316-1" /><path
       d="m 427.2851,1334.1328 c -2.46,-0.03 -2.32,0.01 -10.24,-7.94 -7.91,-7.94 -38.35,-35.79 -37.25,-39.75 1.1,-3.96 30.97,27.29 35.96,27.06 4.99,-0.24 -0.12,-45.1 2.38,-45.27 2.5,-0.17 8.57,43.77 12.64,44.24 4.06,0.47 28.8,-38.35 30.48,-36.2 1.67,2.16 -23.03,40.92 -29.4,50.11 -3.18,4.58 -2.1,7.78 -4.57,7.75 z"
       fill="#e11134"
       fill-rule="evenodd"
       id="path318-5" /><path
       d="m 480.437,1213.6977 c 0.1843,0.06 0.3711,0.1281 0.5551,0.2016 7.1036,3.6333 8.7592,12.8564 7.1778,20.0428 -1.104,6.6239 -6.445,13.9164 -13.8626,13.168 -1.0716,-0.1224 -2.0953,-0.5378 -3.0007,-1.1139 -7.5215,-5.4309 -8.1825,-16.5477 -4.4031,-24.4088 2.0095,-5.2111 7.8226,-9.7485 13.5336,-7.89 z m 31.7209,10.2506 c 4.632,1.568 6.7942,7.4343 6.1479,12.1148 -1.186,9.3023 -8.6078,19.0086 -18.6614,18.9373 -0.9187,-0.081 -1.8147,-0.3386 -2.6419,-0.7436 -5.886,-2.9678 -6.3488,-10.7474 -4.3394,-16.2857 2.4948,-7.3541 9.014,-14.7262 17.3607,-14.4135 0.7618,0.033 1.4719,0.1674 2.1338,0.3914 z m -59.9635,8.7984 c 7.9245,2.9974 10.9518,12.7784 9.3984,20.5474 -0.6209,5.759 -5.7736,12.1157 -12.0996,10.6211 -8.5999,-2.7946 -11.6168,-13.8531 -9.39,-21.8667 1.0884,-5.4195 6.1651,-10.8291 12.0912,-9.3018 z m 70.1214,23.7951 c 3.4446,1.0402 6.1826,4.1502 6.2179,7.9918 0.086,10.2744 -9.6124,20.2332 -20.118,19.1158 -4.3495,-0.5791 -6.9903,-4.88 -6.8261,-9.0144 0.3712,-8.8367 7.7787,-16.925 16.4744,-18.2803 1.4435,-0.307 2.9033,-0.2182 4.2512,0.1888 z m -41.4163,5.4795 c 6.7303,2.1114 12.5068,7.6591 15.2837,14.1046 2.8637,7.3963 4.5737,15.4982 3.7531,23.4518 0.1565,5.9578 -5.9302,10.8631 -11.7002,9.1075 -6.9876,-1.9644 -11.4601,-8.5756 -18.2387,-11.0739 -5.567,-2.7108 -11.7468,-1.3003 -17.6209,-0.9468 -5.0695,0.5204 -11.0232,-2.1377 -11.8082,-7.6636 -0.2686,-5.467 4.0053,-9.8763 7.553,-13.5525 6.6708,-5.6827 13.7726,-11.6269 22.4738,-13.7623 3.5033,-0.9058 7.0174,-0.6959 10.3044,0.3352 z"
       fill="#426598"
       fill-rule="evenodd"
       id="path320-9" /><path
       d="m 438.1151,1106.0228 c -0.18,0.06 -0.37,0.13 -0.55,0.2 -7.11,3.64 -8.76,12.86 -7.18,20.05 1.1,6.62 6.44,13.91 13.86,13.16 1.07,-0.12 2.1,-0.53 3,-1.11 7.52,-5.43 8.18,-16.55 4.41,-24.41 -2.01,-5.21 -7.83,-9.75 -13.54,-7.89 z m -31.72,10.25 c -4.63,1.57 -6.79,7.44 -6.15,12.12 1.19,9.3 8.61,19.01 18.66,18.93 0.92,-0.08 1.82,-0.33 2.65,-0.74 5.88,-2.97 6.35,-10.75 4.34,-16.29 -2.5,-7.35 -9.02,-14.72 -17.36,-14.41 -0.77,0.03 -1.48,0.17 -2.14,0.39 z m 59.96,8.8 c -7.92,3 -10.95,12.78 -9.39,20.55 0.62,5.76 5.77,12.11 12.1,10.62 8.6,-2.8 11.61,-13.85 9.39,-21.87 -1.09,-5.42 -6.17,-10.83 -12.1,-9.3 z m -70.12,23.8 c -3.44,1.04 -6.18,4.15 -6.21,7.99 -0.09,10.27 9.61,20.23 20.11,19.11 4.35,-0.58 6.99,-4.88 6.83,-9.01 -0.37,-8.84 -7.78,-16.93 -16.47,-18.28 -1.45,-0.31 -2.91,-0.22 -4.26,0.19 z m 41.42,5.47 c -6.73,2.12 -12.51,7.66 -15.28,14.11 -2.87,7.4 -4.58,15.5 -3.76,23.45 -0.15,5.96 5.93,10.86 11.7,9.11 6.99,-1.97 11.46,-8.58 18.24,-11.08 5.57,-2.71 11.75,-1.3 17.62,-0.94 5.07,0.52 11.03,-2.14 11.81,-7.67 0.27,-5.46 -4,-9.87 -7.55,-13.55 -6.67,-5.68 -13.77,-11.63 -22.48,-13.76 -3.5,-0.91 -7.01,-0.7 -10.3,0.33 z"
       fill="#426598"
       fill-rule="evenodd"
       id="path322-7" /><path
       d="m 508.1551,1029.0928 c -0.19,-0.02 -0.39,-0.03 -0.59,-0.04 -7.97,0.39 -13.27,8.11 -14.79,15.31 -1.71,6.5 0.16,15.34 7.23,17.71 1.02,0.33 2.13,0.37 3.19,0.22 9.09,-1.86 14.26,-11.72 14.05,-20.44 0.31,-5.58 -3.12,-12.1 -9.09,-12.76 z m -33.13,-3.7 c -4.87,-0.48 -9.25,3.98 -10.59,8.52 -2.74,8.96 0.03,20.86 9.23,24.93 0.87,0.31 1.79,0.44 2.71,0.41 6.59,-0.28 10.21,-7.19 10.65,-13.06 0.75,-7.73 -2.16,-17.13 -9.9,-20.28 -0.7,-0.28 -1.41,-0.45 -2.1,-0.52 z m 51.04,32.68 c -8.46,-0.53 -15.24,7.14 -17.02,14.86 -1.8,5.51 0.28,13.42 6.66,14.66 8.99,0.99 16.29,-7.85 17.56,-16.07 1.23,-5.39 -1.17,-12.41 -7.2,-13.45 z m -73.7,-7.15 c -3.57,-0.47 -7.35,1.24 -8.96,4.73 -4.3,9.33 0.44,22.4 10.48,25.7 4.2,1.26 8.38,-1.57 9.93,-5.41 3.29,-8.21 -0.13,-18.63 -7.5,-23.44 -1.19,-0.87 -2.56,-1.39 -3.95,-1.57 z m 35.49,22.03 c -7,-0.84 -14.55,1.84 -19.73,6.57 -5.65,5.57 -10.54,12.25 -13.06,19.83 -2.59,5.37 0.94,12.35 6.92,13.12 7.17,1.08 13.97,-3.11 21.18,-2.6 6.19,-0.18 11.24,3.65 16.45,6.39 4.4,2.56 10.92,2.58 13.91,-2.13 2.5,-4.87 0.41,-10.65 -1.31,-15.46 -3.74,-7.92 -7.77,-16.26 -14.82,-21.79 -2.83,-2.26 -6.11,-3.52 -9.54,-3.93 z"
       fill="#426598"
       fill-rule="evenodd"
       id="path324-9" /><path
       d="m 447.4251,934.72279 c -0.19,0.03 -0.38,0.07 -0.58,0.11 -7.58,2.48 -10.66,11.33 -10.21,18.68 0.05,6.71 4.19,14.75 11.63,15.17 1.08,0.04 2.16,-0.21 3.14,-0.63 8.28,-4.2 10.67,-15.07 8.16,-23.43 -1.17,-5.46 -6.21,-10.85 -12.14,-9.9 z m -32.93,5.17 c -4.82,0.83 -7.87,6.29 -7.96,11.01 -0.28,9.38 5.53,20.12 15.48,21.62 0.92,0.06 1.84,-0.05 2.72,-0.32 6.28,-2.02 7.95,-9.63 6.83,-15.41 -1.32,-7.66 -6.61,-15.95 -14.9,-16.95 -0.76,-0.08 -1.48,-0.06 -2.17,0.06 z m 57.86,18.05 c -8.3,1.72 -12.81,10.91 -12.49,18.83 -0.29,5.79 3.81,12.87002 10.29,12.38002 8.93,-1.42002 13.64,-11.87002 12.69,-20.14002 -0.23,-5.52 -4.4,-11.65 -10.49,-11.07 z m -72.98,12.56 c -3.56,0.49 -6.75,3.14 -7.39,6.93 -1.68,10.13 6.34,21.48002 16.89,22.02002 4.39,0.11 7.67,-3.73 8.15,-7.84 1.01,-8.79002 -5.04,-17.93002 -13.42,-20.63002 -1.38,-0.53 -2.83,-0.67 -4.23,-0.47 z m 40.06,11.88 c -6.98,1.03 -13.55,5.61 -17.3,11.55002 -3.98,6.84999 -6.94,14.58999 -7.37,22.56999 -1.08,5.87 4.17,11.66 10.14,10.83 7.21,-0.85 12.66,-6.69 19.74,-8.1 5.93,-1.81 11.81,0.55 17.56,1.82 4.92,1.3 11.22,-0.4 12.86,-5.73 1.11,-5.36 -2.42,-10.38 -5.35,-14.57 -5.7,-6.64999 -11.79,-13.63001 -20.05,-17.10001 -3.32,-1.44 -6.83,-1.78 -10.23,-1.27 z"
       fill="#426598"
       fill-rule="evenodd"
       id="path326-9" /><path
       d="m 470.037,843.29767 c 0.1843,0.06 0.3711,0.1281 0.5551,0.2016 7.1036,3.6333 8.7592,12.8564 7.1778,20.0428 -1.104,6.6239 -6.445,13.9164 -13.8626,13.168 -1.0716,-0.1224 -2.0953,-0.5378 -3.0007,-1.1139 -7.5215,-5.4309 -8.1825,-16.5477 -4.4031,-24.4088 2.0095,-5.2111 7.8226,-9.7485 13.5336,-7.89 z m 31.7209,10.2506 c 4.632,1.568 6.7942,7.4343 6.1479,12.1148 -1.186,9.3023 -8.6078,19.0086 -18.6614,18.9373 -0.9187,-0.081 -1.8147,-0.3386 -2.6419,-0.7436 -5.886,-2.9678 -6.3488,-10.7474 -4.3394,-16.2857 2.4948,-7.3541 9.014,-14.7262 17.3607,-14.4135 0.7618,0.033 1.4719,0.1674 2.1338,0.3914 z m -59.9635,8.7984 c 7.9245,2.9974 10.9518,12.7784 9.3984,20.5474 -0.6209,5.759 -5.7736,12.1157 -12.0996,10.6211 -8.5999,-2.7946 -11.6168,-13.8531 -9.39,-21.8667 1.0884,-5.4195 6.1651,-10.8291 12.0912,-9.3018 z m 70.1214,23.7951 c 3.4446,1.0402 6.1826,4.1502 6.2179,7.9918 0.086,10.27445 -9.6124,20.23322 -20.118,19.11582 -4.3495,-0.5791 -6.9903,-4.87997 -6.8261,-9.01437 0.3712,-8.83675 7.7787,-16.92505 16.4744,-18.28035 1.4435,-0.307 2.9033,-0.2182 4.2512,0.1888 z m -41.4163,5.4795 c 6.7303,2.1114 12.5068,7.6591 15.2837,14.10465 2.8637,7.39627 4.5737,15.49817 3.7531,23.45177 0.1565,5.9578 -5.9302,10.8631 -11.7002,9.1075 -6.9876,-1.9644 -11.4601,-8.5756 -18.2387,-11.0739 -5.567,-2.7108 -11.7468,-1.3003 -17.6209,-0.9468 -5.0695,0.5204 -11.0232,-2.1377 -11.8082,-7.6636 -0.2686,-5.467 4.0053,-9.87627 7.553,-13.55247 6.6708,-5.68275 13.7726,-11.62695 22.4738,-13.76235 3.5033,-0.9058 7.0174,-0.6959 10.3044,0.3352 z"
       fill="#426598"
       fill-rule="evenodd"
       id="path328-3" /><path
       d="m 454.8851,751.04277 c -0.19,0.06 -0.38,0.13 -0.56,0.2 -7.1,3.64 -8.76,12.86 -7.18,20.05 1.11,6.62 6.45,13.91 13.87,13.17 1.07,-0.13 2.09,-0.54 3,-1.12 7.52,-5.43 8.18,-16.55 4.4,-24.41 -2.01,-5.21 -7.82,-9.75 -13.53,-7.89 z m -31.73,10.25 c -4.63,1.57 -6.79,7.44 -6.14,12.12 1.18,9.3 8.6,19.01 18.66,18.94 0.92,-0.09 1.81,-0.34 2.64,-0.75 5.89,-2.97 6.35,-10.75 4.34,-16.28 -2.5,-7.36 -9.01,-14.73 -17.36,-14.42 -0.76,0.04 -1.47,0.17 -2.14,0.39 z m 59.97,8.8 c -7.93,3 -10.95,12.78 -9.4,20.55 0.62,5.76 5.77,12.12 12.1,10.62 8.6,-2.79 11.62,-13.85 9.39,-21.87 -1.09,-5.42 -6.17,-10.83 -12.09,-9.3 z m -70.12,23.8 c -3.45,1.04 -6.19,4.15 -6.22,7.99 -0.09,10.27 9.61,20.23 20.12,19.11 4.35,-0.57 6.99,-4.88 6.82,-9.01 -0.37,-8.84 -7.78,-16.92 -16.47,-18.28 -1.45,-0.31 -2.9,-0.22 -4.25,0.19 z m 41.41,5.48 c -6.73,2.11 -12.5,7.66 -15.28,14.1 -2.86,7.4 -4.57,15.5 -3.75,23.45 -0.16,5.96 5.93,10.87 11.7,9.11 6.98,-1.96 11.46,-8.58 18.24,-11.07 5.56,-2.71 11.74,-1.3 17.62,-0.95 5.07,0.52 11.02,-2.14 11.8,-7.66 0.27,-5.47 -4,-9.88 -7.55,-13.56 -6.67,-5.68 -13.77,-11.62 -22.47,-13.76 -3.51,-0.9 -7.02,-0.69 -10.31,0.34 z"
       fill="#426598"
       fill-rule="evenodd"
       id="path330-8" /><path
       d="m 507.8651,636.30277 c -0.18,-0.06 -0.38,-0.11 -0.57,-0.15 -7.92,-0.98 -14.46,5.73 -17.19,12.56 -2.8,6.11 -2.47,15.14 4.09,18.68 0.95,0.5 2.03,0.73 3.11,0.76 9.27,-0.27 16.05,-9.1 17.34,-17.73 1.26,-5.44 -1.01,-12.46 -6.78,-14.12 z m -32.01,-9.32 c -4.71,-1.3 -9.79,2.34 -11.88,6.58 -4.24,8.37 -3.54,20.56 4.82,26.15 0.8,0.44 1.69,0.73 2.6,0.86 6.54,0.85 11.29,-5.33 12.73,-11.04 2.06,-7.49 0.8,-17.25 -6.28,-21.67 -0.65,-0.4 -1.31,-0.69 -1.99,-0.88 z m 44.7,40.93 c -8.24,-1.97 -16.23,4.43 -19.31,11.73 -2.72,5.12 -2.02,13.27 4.06,15.59 8.68,2.51 17.39,-4.95 20.04,-12.84 2.14,-5.09 0.97,-12.42 -4.79,-14.48 z m -71.39,-19.65 c -3.44,-1.07 -7.45,-0.03 -9.63,3.13 -5.84,8.45 -3.4,22.14 5.92,27.11 3.93,1.96 8.53,-0.12 10.71,-3.63 4.65,-7.53 3.06,-18.38 -3.38,-24.38 -1.02,-1.06 -2.28,-1.81 -3.62,-2.23 z m 31.2,27.78 c -6.75,-2.03 -14.65,-0.68 -20.56,3.09 -6.52,4.52 -12.48,10.27 -16.27,17.31 -3.47,4.84 -1.18,12.32 4.58,14.1 6.88,2.3 14.3,-0.66 21.31,1.07 6.13,0.88 10.45,5.52 15.12,9.11 3.9,3.27 10.32,4.41 14.07,0.28 3.29,-4.38 2.23,-10.42 1.35,-15.46 -2.33,-8.44 -4.87,-17.35 -10.88,-24 -2.39,-2.72 -5.42,-4.51 -8.72,-5.5 z"
       fill="#426598"
       fill-rule="evenodd"
       id="path332-2" /><path
       d="m 443.4551,422.68777 c -0.17,0.089 -0.35,0.186 -0.52,0.288 -6.43,4.727 -6.58,14.096 -3.86,20.936 2.15,6.36 8.59,12.7 15.79,10.77 1.04,-0.293 1.99,-0.867 2.79,-1.581 6.55,-6.568 5.42,-17.647 0.42,-24.799 -2.82,-4.821 -9.28,-8.366 -14.62,-5.614 z m -29.67,15.212 c -4.32,2.291 -5.51,8.429 -4.12,12.945 2.67,8.991 11.55,17.379 21.46,15.694 0.9,-0.227 1.74,-0.626 2.49,-1.158 5.33,-3.875 4.54,-11.627 1.67,-16.771 -3.64,-6.858 -11.26,-13.088 -19.45,-11.439 -0.75,0.155 -1.43,0.402 -2.04,0.729 z m 60.6,-0.946 c -7.34,4.231 -8.75,14.372 -5.97,21.79 1.53,5.585 7.64,11.032 13.64,8.54 8.04,-4.139 9.25,-15.538 5.76,-23.09 -1.94,-5.175 -7.82,-9.699 -13.43,-7.24 z m -65.39,34.747 c -3.23,1.58 -5.43,5.089 -4.85,8.887 1.56,10.155 12.74,18.427 22.93,15.637 4.2,-1.27 6.11,-5.939 5.29,-9.994 -1.79,-8.662 -10.4,-15.456 -19.2,-15.397 -1.47,-0.071 -2.9,0.251 -4.17,0.869 z m 41.76,-1.242 c -6.3,3.165 -11.11,9.568 -12.82,16.376 -1.64,7.76 -2.02,16.031 0.06,23.75 0.81,5.905 7.6,9.77 13.01,7.11 6.59,-3.061 9.94,-10.305 16.23,-13.859 5.06,-3.57 11.38,-3.17 17.24,-3.764 5.09,-0.301 10.53,-3.88 10.42,-9.461 -0.61,-5.439 -5.54,-9.105 -9.63,-12.163 -7.5,-4.538 -15.46,-9.265 -24.39,-9.975 -3.6,-0.331 -7.04,0.44 -10.12,1.986 z"
       fill="#426598"
       fill-rule="evenodd"
       id="path334-1" /><path
       d="m 497.2651,331.45877 c -0.19,0.016 -0.39,0.04 -0.58,0.069 -7.75,1.908 -11.48,10.505 -11.59,17.863 -0.44,6.7 3.09,15.023 10.48,15.996 1.07,0.127 2.16,-0.043 3.17,-0.396 8.57,-3.561 11.76,-14.23 9.89,-22.748 -0.76,-5.533 -5.38,-11.283 -11.37,-10.784 z m -33.22,2.703 c -4.87,0.464 -8.32,5.678 -8.77,10.382 -0.97,9.326 4.02,20.476 13.83,22.712 0.91,0.132 1.84,0.087 2.74,-0.118 6.41,-1.539 8.64,-9.005 7.96,-14.856 -0.75,-7.73 -5.4,-16.401 -13.6,-18.011 -0.74,-0.143 -1.47,-0.175 -2.16,-0.108 z m 56.34,22.316 c -8.4,1.1 -13.59,9.926 -13.86,17.844 -0.71,5.748 2.85,13.117 9.35,13.113 9.01,-0.748 14.48,-10.82 14.15,-19.13 0.18,-5.525 -3.52,-11.955 -9.64,-11.827 z m -73.7,7.079 c -3.6,0.222 -6.97,2.621 -7.89,6.353 -2.44,9.98 4.72,21.898 15.2,23.22 4.36,0.434 7.92,-3.147 8.71,-7.209 1.66,-8.686 -3.69,-18.258 -11.84,-21.571 -1.34,-0.63 -2.78,-0.878 -4.18,-0.791 z m 39.05,14.832 c -7.03,0.512 -13.93,4.586 -18.11,10.223 -4.48,6.543 -8.01,14.036 -9.03,21.966 -1.52,5.763 3.28,11.934 9.3,11.548 7.25,-0.309 13.12,-5.718 20.29,-6.595 6.04,-1.362 11.73,1.428 17.37,3.119 4.81,1.669 11.22,0.448 13.25,-4.751 1.51,-5.26 -1.63,-10.532 -4.24,-14.923 -5.19,-7.061 -10.74,-14.476 -18.72,-18.55 -3.2,-1.685 -6.67,-2.287 -10.11,-2.037 z"
       fill="#426598"
       fill-rule="evenodd"
       id="path336-3" /><path
       d="m 520.6351,585.51277 c 0.18,-0.08 0.36,-0.16 0.53,-0.25 6.76,-4.24 7.61,-13.568 5.41,-20.589 -1.67,-6.503 -7.63,-13.304 -14.95,-11.914 -1.06,0.216 -2.04,0.718 -2.9,1.371 -7.02,6.064 -6.71,17.196 -2.26,24.702 2.45,5.01 8.64,9.03 14.17,6.68 z m 30.71,-12.97 c 4.47,-1.963 6.12,-7.995 5.07,-12.602 -1.99,-9.164 -10.23,-18.188 -20.24,-17.243 -0.91,0.16 -1.78,0.495 -2.57,0.97 -5.6,3.468 -5.39,11.259 -2.9,16.601 3.12,7.11 10.26,13.884 18.54,12.854 0.76,-0.1 1.46,-0.3 2.1,-0.58 z m -60.5,-3.551 c 7.63,-3.675 9.8,-13.682 7.57,-21.287 -1.12,-5.683 -6.8,-11.568 -12.97,-9.529 -8.33,3.531 -10.37,14.81 -7.46,22.6 1.56,5.304 7.08,10.252 12.86,8.216 z m 67.78,-29.801 c 3.34,-1.335 5.8,-4.672 5.5,-8.502 -0.8,-10.243 -11.33,-19.321 -21.7,-17.295 -4.28,0.956 -6.54,5.47 -6.02,9.574 1.14,8.771 9.22,16.185 18,16.779 1.47,0.181 2.91,-0.035 4.22,-0.557 z m -41.73,-1.858 c 6.52,-2.689 11.79,-8.718 14,-15.38 2.21,-7.617 3.21,-15.837 1.7,-23.689 -0.36,-5.949 -6.85,-10.307 -12.45,-8.056 -6.79,2.564 -10.67,9.539 -17.21,12.617 -5.31,3.184 -11.59,2.317 -17.47,2.475 -5.09,-0.078 -10.79,3.088 -11.1,8.661 0.21,5.47 4.85,9.491 8.71,12.845 7.14,5.081 14.73,10.385 23.58,11.756 3.57,0.598 7.05,0.084 10.24,-1.229 z"
       fill="#426598"
       fill-rule="evenodd"
       id="path338-1" /><path
       d="m 412.2451,633.86277 c 0.19,0.06 0.38,0.1 0.57,0.14 7.93,0.91 14.41,-5.86 17.07,-12.72 2.75,-6.12 2.34,-15.15 -4.25,-18.64 -0.96,-0.49 -2.05,-0.71 -3.12,-0.73 -9.27,0.36 -15.97,9.25 -17.18,17.89 -1.21,5.45 1.12,12.45 6.91,14.06 z m 32.09,9.02 c 4.73,1.26 9.77,-2.43 11.83,-6.68 4.16,-8.41 3.35,-20.6 -5.06,-26.1 -0.81,-0.45 -1.7,-0.73 -2.62,-0.85 -6.54,-0.78 -11.23,5.44 -12.62,11.16 -2,7.51 -0.65,17.26 6.48,21.62 0.65,0.39 1.32,0.67 1.99,0.85 z m -45.07,-40.51 c 8.26,1.89 16.19,-4.58 19.2,-11.91 2.67,-5.14 1.9,-13.29 -4.2,-15.55 -8.71,-2.43 -17.34,5.11 -19.92,13.02 -2.09,5.11 -0.86,12.43 4.92,14.44 z m 71.57,18.99 c 3.45,1.04 7.45,-0.03 9.6,-3.21 5.76,-8.51 3.2,-22.18 -6.17,-27.06 -3.94,-1.92 -8.52,0.2 -10.68,3.73 -4.58,7.57 -2.89,18.4 3.61,24.34 1.03,1.06 2.29,1.79 3.64,2.2 z m -31.46,-27.49 c 6.77,1.97 14.66,0.55 20.54,-3.28 6.48,-4.58 12.38,-10.38 16.1,-17.46 3.43,-4.874 1.08,-12.328 -4.7,-14.06 -6.91,-2.231 -14.29,0.799 -21.32,-0.872 -6.14,-0.823 -10.5,-5.419 -15.2,-8.964 -3.93,-3.24 -10.36,-4.321 -14.08,-0.153 -3.25,4.404 -2.13,10.442 -1.21,15.467 2.41,8.422 5.04,17.302 11.1,23.902 2.42,2.69 5.46,4.46 8.77,5.42 z"
       fill="#426598"
       fill-rule="evenodd"
       id="path340-0" /><path
       d="m 525.1151,804.97277 c 0.17,-0.08 0.35,-0.16 0.53,-0.25 6.76,-4.24 7.61,-13.57 5.41,-20.59 -1.68,-6.5 -7.63,-13.3 -14.95,-11.91 -1.06,0.21 -2.05,0.72 -2.9,1.37 -7.02,6.06 -6.71,17.19 -2.26,24.7 2.45,5.01 8.64,9.03 14.17,6.68 z m 30.71,-12.97 c 4.47,-1.96 6.12,-8 5.07,-12.6 -1.99,-9.17 -10.23,-18.19 -20.24,-17.25 -0.91,0.17 -1.78,0.5 -2.57,0.98 -5.6,3.46 -5.39,11.25 -2.9,16.6 3.12,7.11 10.26,13.88 18.54,12.85 0.76,-0.1 1.46,-0.3 2.1,-0.58 z m -60.51,-3.55 c 7.64,-3.68 9.8,-13.68 7.58,-21.29 -1.12,-5.68 -6.8,-11.57 -12.98,-9.53 -8.32,3.53 -10.36,14.81 -7.45,22.6 1.56,5.31 7.08,10.26 12.85,8.22 z m 67.79,-29.8 c 3.34,-1.34 5.8,-4.67 5.5,-8.5 -0.81,-10.25 -11.33,-19.32 -21.7,-17.3 -4.28,0.96 -6.54,5.47 -6.02,9.58 1.14,8.77 9.22,16.18 18,16.77 1.47,0.18 2.91,-0.03 4.22,-0.55 z m -41.73,-1.86 c 6.52,-2.69 11.79,-8.72 14,-15.38 2.21,-7.62 3.21,-15.84 1.7,-23.69 -0.37,-5.95 -6.86,-10.31 -12.45,-8.06 -6.79,2.57 -10.67,9.54 -17.21,12.62 -5.31,3.19 -11.59,2.32 -17.47,2.48 -5.1,-0.08 -10.8,3.08 -11.1,8.66 0.21,5.47 4.85,9.49 8.7,12.84 7.14,5.08 14.74,10.39 23.59,11.76 3.57,0.6 7.05,0.08 10.24,-1.23 z"
       fill="#426598"
       fill-rule="evenodd"
       id="path342-4" /><path
       d="m 583.6251,910.27279 c 0.14,-0.14 0.28,-0.28 0.41,-0.43 4.85,-6.32997 2.37,-15.37002 -2.15,-21.18002 -3.85,-5.5 -11.81,-9.78 -18.18,-5.91 -0.92,0.57 -1.66,1.38 -2.23,2.29 -4.45,8.14 -0.26,18.46005 6.53,23.93005 4.06,3.83997 11.26,5.42997 15.62,1.29997 z m 24.21,-22.91002 c 3.51,-3.41 2.94,-9.64 0.34,-13.59 -5.08,-7.88 -15.96,-13.45 -25,-9.05 -0.79,0.47 -1.49,1.08 -2.06,1.81 -4.04,5.21 -1.11,12.43 3.09,16.56 5.42,5.57 14.48,9.41 21.88,5.54 0.67,-0.36 1.25,-0.79 1.75,-1.27 z m -57.91,17.87005 c 5.87,-6.12005 4.39,-16.25005 -0.36,-22.59005 -3.04,-4.93 -10.43,-8.45 -15.49,-4.38 -6.56,6.23 -4.52,17.51 0.94,23.78005 3.31,4.43 10.22,7.11997 14.91,3.19 z m 53.05,-51.66005 c 2.66,-2.43 3.79,-6.41 2.17,-9.9 -4.35,-9.31 -17.39,-14.12 -26.39,-8.59 -3.67,2.4 -4.21,7.42 -2.28,11.08 4.14,7.81 14.31,11.93 22.74,9.4 1.44,-0.34 2.72,-1.05 3.76,-2 z m -39.74,12.88 c 5.16,-4.8 7.99,-12.3 7.72,-19.31 -0.6,-7.91 -2.54,-15.96 -6.71,-22.78 -2.42,-5.45 -10.03,-7.25 -14.48,-3.19 -5.46,4.79 -6.65,12.68 -11.69,17.85 -3.86,4.85 -10.05,6.23 -15.5,8.44 -4.8,1.72 -9.03,6.68 -7.36,12 2.11,5.05 7.87,7.19 12.65,8.98 8.47,2.26 17.44,4.57 26.21,2.75 3.55,-0.69 6.64,-2.39 9.16,-4.74 z"
       fill="#426598"
       fill-rule="evenodd"
       id="path344-4" /><path
       d="m 777.5951,943.02279 c 0,-0.19 -0.01,-0.39 -0.03,-0.59 -1.35,-7.86 -9.61,-12.19 -16.89,-12.81 -6.61,-0.92 -15.1,2.01 -16.58,9.32 -0.2,1.06 -0.11,2.16 0.17,3.2 2.93,8.79 13.28,12.73 21.85,11.46 5.53,-0.37 11.56,-4.57 11.48,-10.58 z m -0.36,-33.34 c -0.11,-4.88997 -5.04,-8.69997 -9.67,-9.47002 -9.17,-1.63 -20.57,2.57005 -23.47,12.19002 -0.2,0.9 -0.22,1.83 -0.08,2.74 1.08,6.51 8.32,9.26 14.17,8.99 7.71,-0.2 16.63,-4.23 18.8,-12.29 0.19,-0.74 0.27,-1.46 0.25,-2.16 z m -26.05,54.65 c -0.5,-8.46 -8.89,-14.26 -16.71,-15.09 -5.65,-1.12 -13.2,1.91 -13.65,8.4 0.11,9.04 9.71,15.21 17.97,15.47 5.46,0.57 12.09,-2.67 12.39,-8.78 z m -1.86,-74.04002 c 0.03,-3.6 -2.11,-7.14 -5.74,-8.31 -9.72,-3.14 -22.03,3.16 -24.08,13.53 -0.73,4.32 2.57,8.12005 6.54,9.19005 8.49,2.28 18.35,-2.39 22.2,-10.29005 0.72,-1.29 1.07,-2.71 1.08,-4.12 z m -17.43,37.92002 c -0.01,-7.05 -3.57,-14.22 -8.86,-18.79 -6.17,-4.92997 -13.35,-8.97002 -21.14,-10.55002 -5.6,-1.92 -12.05,2.43005 -12.09,8.46005 -0.2,7.25997 4.75,13.48997 5.11,20.70997 0.93,6.12 -2.23,11.6 -4.3,17.11 -1.99,4.68 -1.23,11.16 3.78,13.55 5.11,1.88 10.55,-0.89 15.08,-3.18 7.36,-4.68 15.1,-9.7 19.7,-17.37 1.89,-3.08 2.73,-6.49 2.72,-9.94 z"
       fill="#426598"
       fill-rule="evenodd"
       id="path346-9" /><path
       d="m 649.6951,981.77279 c 0.14,-0.14 0.28,-0.28 0.42,-0.42 4.85,-6.34 2.37,-15.38 -2.15,-21.18 -3.85,-5.51 -11.81,-9.79 -18.18,-5.92 -0.92,0.57 -1.66,1.39 -2.23,2.3 -4.45,8.14 -0.26,18.46 6.53,23.92 4.06,3.84 11.26,5.43 15.61,1.3 z m 24.22,-22.91 c 3.51,-3.41 2.93,-9.64 0.33,-13.58 -5.07,-7.89 -15.95,-13.45 -24.99,-9.06 -0.8,0.47 -1.49,1.09 -2.07,1.81 -4.03,5.21 -1.1,12.43 3.1,16.57 5.42,5.56 14.47,9.41 21.87,5.53 0.68,-0.36 1.26,-0.78 1.76,-1.27 z m -57.91,17.87 c 5.86,-6.11 4.39,-16.24 -0.36,-22.59 -3.04,-4.93 -10.43,-8.45 -15.5,-4.37 -6.55,6.22 -4.52,17.5 0.94,23.77 3.32,4.43 10.23,7.12 14.92,3.19 z m 53.05,-51.66 c 2.66,-2.42 3.79,-6.41 2.17,-9.89 -4.35,-9.30997 -17.39,-14.12997 -26.39,-8.58997 -3.68,2.39 -4.21,7.40997 -2.28,11.06997 4.14,7.82 14.31,11.93 22.74,9.41 1.44,-0.35 2.71,-1.06 3.76,-2 z m -39.74,12.88 c 5.16,-4.8 7.99,-12.29 7.72,-19.31 -0.6,-7.91 -2.55,-15.94997 -6.71,-22.78002 -2.42,-5.45 -10.03,-7.25 -14.48,-3.18 -5.46,4.78 -6.65,12.67005 -11.7,17.84002 -3.85,4.85 -10.04,6.24 -15.49,8.45 -4.8,1.71 -9.03,6.67 -7.36,12 2.11,5.05 7.87,7.19 12.65,8.98 8.47,2.25 17.44,4.56 26.21,2.74 3.55,-0.69 6.63,-2.39 9.16,-4.74 z"
       fill="#426598"
       fill-rule="evenodd"
       id="path348-5" /><path
       d="m 893.8951,958.53279 c -0.04,-0.2 -0.08,-0.39 -0.12,-0.58 -2.58,-7.55 -11.47,-10.51 -18.81,-9.98 -6.72,0.15 -14.7,4.39 -15.02,11.84 -0.03,1.08 0.23,2.15 0.67,3.13 4.3,8.22 15.21,10.46 23.53,7.85 5.44,-1.24 10.77,-6.35 9.75,-12.26 z m -5.61,-32.87 c -0.89,-4.8 -6.38,-7.78 -11.11,-7.82 -9.37,-0.15 -20.04,5.8 -21.41,15.76 -0.05,0.92 0.07,1.85 0.36,2.72 2.09,6.25 9.72,7.83 15.49,6.63 7.64,-1.42 15.87,-6.81 16.75,-15.12 0.08,-0.76 0.05,-1.48 -0.08,-2.17 z m -17.29,58.09 c -1.83,-8.27 -11.08,-12.67 -18.99,-12.24 -5.79,-0.21 -12.82,3.98 -12.24,10.45 1.53,8.91002 12.04,13.48002 20.29,12.42002 5.52,-0.3 11.6,-4.55 10.94,-10.63002 z m -13.51,-72.81 c -0.54,-3.54997 -3.22,-6.70997 -7.02,-7.28997 -10.16,-1.56 -21.4,6.60997 -21.8,17.16997 -0.05,4.39 3.83,7.62 7.94,8.05 8.8,0.89 17.87,-5.28 20.46,-13.69 0.51,-1.39 0.63,-2.84 0.42,-4.24 z m -11.35,40.21 c -1.13,-6.96 -5.79,-13.48 -11.77,-17.15 -6.91,-3.89 -14.69,-6.74 -22.68,-7.07 -5.87,-1.01 -11.6,4.32 -10.69,10.28 0.95,7.19 6.85,12.57 8.35,19.63 1.89,5.9 -0.39,11.82 -1.58,17.58 -1.24,4.94 0.53,11.21 5.89,12.78 5.37,1.05 10.35,-2.55 14.49,-5.53 6.58,-5.79 13.48,-11.97 16.84,-20.27 1.4,-3.34 1.7,-6.85 1.15,-10.25 z"
       fill="#426598"
       fill-rule="evenodd"
       id="path350-4" /><path
       d="m 975.1551,898.28277 c -0.08,-0.18 -0.16,-0.36 -0.25,-0.54 -4.21,-6.77 -13.54,-7.65 -20.57,-5.48 -6.51,1.65 -13.33,7.58 -11.97,14.91005 0.21,1.06 0.71,2.04997 1.36,2.89997 6.04,7.04 17.17,6.78 24.69,2.35 5.03,-2.43 9.06,-8.59997 6.74,-14.14002 z m -12.86,-30.76 c -1.95,-4.48 -7.98,-6.15 -12.59,-5.11 -9.17,1.95 -18.22,10.16 -17.31,20.17 0.15,0.91 0.49,1.78 0.96,2.57 3.45,5.62 11.24,5.43 16.59,2.97 7.12,-3.1 13.92,-10.21 12.92,-18.5 -0.1,-0.76 -0.29,-1.46 -0.57,-2.1 z m -3.77,60.49002 c -3.65,-7.65 -13.65,-9.85 -21.26,-7.65 -5.69,1.1 -11.6,6.76 -9.58,12.94 3.5,8.34 14.77,10.42 22.57,7.54 5.31,-1.54 10.28,-7.05 8.27,-12.83 z m -29.56,-67.89002 c -1.32,-3.35 -4.65,-5.82 -8.48,-5.53 -10.25,0.77 -19.36,11.26 -17.37,21.64 0.94,4.28 5.44,6.56 9.55,6.05 8.77,-1.11 16.22,-9.16 16.84,-17.94 0.19,-1.47 -0.02,-2.91 -0.54,-4.22 z m -2.01,41.73005 c -2.66,-6.54005 -8.67,-11.83005 -15.33,-14.06005 -7.61,-2.24 -15.82,-3.27 -23.68,-1.79 -5.95,0.34 -10.33,6.82 -8.1,12.42 2.54,6.80005 9.5,10.71002 12.55,17.25002 3.17,5.33 2.28,11.6 2.42,17.48 -0.1,5.1 3.04,10.81 8.62,11.13 5.47,-0.18 9.5,-4.81 12.87,-8.65 5.11,-7.12 10.44,-14.7 11.84,-23.54 0.62,-3.56997 0.11,-7.05997 -1.19,-10.23997 z"
       fill="#426598"
       fill-rule="evenodd"
       id="path352-0" /><path
       d="m 1036.6851,800.10277 c -0.15,-0.12 -0.31,-0.23 -0.48,-0.34 -7.03,-3.78 -15.56,0.1 -20.57,5.49 -4.82,4.67 -7.78,13.21 -2.95,18.89 0.71,0.81 1.63,1.41 2.62,1.83 8.75,3.1 18.27,-2.67 22.58,-10.25 3.15,-4.62 3.58,-11.98 -1.2,-15.62 z m -26.47,-20.27 c -3.92,-2.92 -9.97,-1.36 -13.46,1.83 -6.98,6.26 -10.74,17.89 -4.97,26.12 0.59,0.71 1.31,1.3 2.12,1.75 5.78,3.15 12.45,-0.89 15.86,-5.69 4.63,-6.23 6.99,-15.79 1.99,-22.48 -0.46,-0.61 -0.98,-1.11 -1.54,-1.53 z m 26.86,54.33 c -6.97,-4.81 -16.74,-1.74 -22.25,3.95 -4.38,3.79 -6.68,11.64 -1.86,15.99 7.19,5.49 18,1.68 23.33,-4.7 3.84,-3.98 5.4,-11.23 0.78,-15.24 z m -59.44,-44.16 c -2.82,-2.24 -6.93,-2.72 -10.11,-0.57 -8.51,5.77 -11.18,19.41 -4.29,27.42 2.95,3.25 7.99,2.98 11.29,0.49 7.06,-5.33 9.51,-16.02 5.68,-23.95 -0.57,-1.36 -1.47,-2.51 -2.58,-3.39 z m 19.03,37.19 c -5.56,-4.34 -13.41,-5.93 -20.29,-4.55 -7.71,1.84 -15.35,5.04 -21.42,10.24 -5,3.26 -5.57,11.06 -0.85,14.8 5.59,4.64 13.57,4.56 19.48,8.71 5.4,3.04 7.75,8.93 10.8,13.96 2.45,4.47 8.03,7.85 13.02,5.36 4.65,-2.89 5.85,-8.91 6.85,-13.92 0.89,-8.72 1.74,-17.94 -1.45,-26.31 -1.25,-3.4 -3.42,-6.17 -6.14,-8.29 z"
       fill="#426598"
       fill-rule="evenodd"
       id="path354-8" /><path
       d="m 1031.5251,403.39377 c -0.19,-0.006 -0.39,-0.006 -0.59,0 -7.91,0.987 -12.62,9.089 -13.59,16.383 -1.23,6.603 1.3,15.281 8.53,17.113 1.05,0.251 2.15,0.21 3.2,-0.022 8.92,-2.533 13.34,-12.755 12.48,-21.434 -0.11,-5.584 -4.02,-11.835 -10.03,-12.04 z m -33.31,-1.206 c -4.89,-0.11 -8.93,4.665 -9.92,9.284 -2.06,9.148 1.6,20.806 11.07,24.175 0.89,0.238 1.82,0.302 2.74,0.204 6.54,-0.778 9.63,-7.931 9.64,-13.823 0.17,-7.764 -3.44,-16.92 -11.39,-19.478 -0.73,-0.23 -1.44,-0.346 -2.14,-0.362 z m 53.35,28.76 c -8.48,0.109 -14.66,8.266 -15.86,16.099 -1.38,5.624 1.29,13.359 7.74,14.116 9.04,0.312 15.66,-9.049 16.3,-17.341 0.83,-5.466 -2.09,-12.284 -8.18,-12.874 z m -74.03,-1.6 c -3.6,-0.2 -7.23,1.787 -8.58,5.386 -3.59,9.626 2.12,22.299 12.37,24.84 4.29,0.942 8.24,-2.198 9.5,-6.14 2.67,-8.431 -1.53,-18.564 -9.24,-22.809 -1.25,-0.782 -2.65,-1.197 -4.05,-1.275 z m 37.05,19.303 c -7.05,-0.316 -14.38,2.924 -19.19,8.032 -5.22,5.973 -9.59,13.002 -11.54,20.758 -2.18,5.545 1.86,12.235 7.88,12.557 7.24,0.542 13.7,-4.143 20.93,-4.174 6.16,-0.646 11.48,2.792 16.88,5.131 4.59,2.222 11.09,1.758 13.72,-3.167 2.12,-5.046 -0.39,-10.65 -2.47,-15.317 -4.33,-7.62 -8.97,-15.634 -16.42,-20.614 -2.98,-2.049 -6.35,-3.052 -9.79,-3.206 z"
       fill="#426598"
       fill-rule="evenodd"
       id="path356-5" /><path
       d="m 1034.9751,322.79577 c -0.13,0.141 -0.26,0.29 -0.39,0.442 -4.5,6.585 -1.55,15.479 3.27,21.038 4.13,5.293 12.31,9.149 18.47,4.949 0.88,-0.619 1.58,-1.473 2.1,-2.412 4.02,-8.363 -0.71,-18.446 -7.79,-23.548 -4.25,-3.619 -11.53,-4.829 -15.66,-0.469 z m -22.97,24.155 c -3.32,3.59 -2.42,9.777 0.38,13.58 5.49,7.607 16.64,12.59 25.44,7.726 0.77,-0.509 1.44,-1.164 1.97,-1.914 3.75,-5.419 0.44,-12.475 -3.97,-16.381 -5.7,-5.27 -14.95,-8.634 -22.13,-4.373 -0.66,0.392 -1.22,0.85 -1.69,1.363 z m 56.89,-20.906 c -5.54,6.418 -3.52,16.457 1.55,22.542 3.3,4.763 10.86,7.887 15.7,3.553 6.22,-6.562 3.59,-17.719 -2.19,-23.696 -3.54,-4.242 -10.59,-6.571 -15.06,-2.399 z m -50.25,54.394 c -2.53,2.559 -3.45,6.599 -1.65,9.991 4.83,9.068 18.11,13.186 26.81,7.187 3.54,-2.586 3.81,-7.626 1.69,-11.18 -4.55,-7.586 -14.92,-11.155 -23.2,-8.193 -1.42,0.419 -2.66,1.195 -3.65,2.196 z m 39.01,-14.965 c -4.91,5.07 -7.34,12.702 -6.7,19.691 1.02,7.866 3.39,15.801 7.91,22.397 2.7,5.31 10.39,6.713 14.62,2.415 5.21,-5.063 5.98,-13.008 10.74,-18.44 3.6,-5.04 9.7,-6.752 15.03,-9.247 4.7,-1.963 8.66,-7.142 6.71,-12.372 -2.37,-4.932 -8.23,-6.765 -13.1,-8.3 -8.58,-1.807 -17.66,-3.638 -26.32,-1.359 -3.51,0.877 -6.5,2.74 -8.89,5.215 z"
       fill="#426598"
       fill-rule="evenodd"
       id="path358-8" /><path
       d="m 1091.3751,548.59477 c 0.18,-0.075 0.36,-0.159 0.54,-0.249 6.76,-4.237 7.61,-13.569 5.41,-20.591 -1.68,-6.502 -7.63,-13.303 -14.96,-11.913 -1.05,0.215 -2.04,0.718 -2.89,1.371 -7.02,6.064 -6.71,17.196 -2.26,24.699 2.45,5.017 8.64,9.032 14.16,6.684 z m 30.71,-12.969 c 4.48,-1.965 6.13,-7.997 5.08,-12.603 -1.99,-9.164 -10.23,-18.189 -20.24,-17.244 -0.91,0.161 -1.78,0.496 -2.57,0.971 -5.6,3.468 -5.39,11.258 -2.91,16.601 3.13,7.11 10.26,13.887 18.55,12.85 0.76,-0.099 1.45,-0.295 2.09,-0.575 z m -60.5,-3.553 c 7.64,-3.674 9.8,-13.682 7.58,-21.286 -1.12,-5.683 -6.81,-11.568 -12.98,-9.529 -8.32,3.531 -10.37,14.81 -7.45,22.6 1.55,5.304 7.08,10.252 12.85,8.215 z m 67.79,-29.8 c 3.34,-1.336 5.8,-4.672 5.5,-8.502 -0.81,-10.243 -11.33,-19.321 -21.7,-17.295 -4.29,0.955 -6.54,5.47 -6.02,9.574 1.14,8.771 9.22,16.185 18,16.779 1.47,0.181 2.91,-0.035 4.22,-0.558 z m -41.74,-1.858 c 6.53,-2.689 11.8,-8.718 14,-15.38 2.21,-7.617 3.21,-15.837 1.7,-23.69 -0.36,-5.948 -6.85,-10.306 -12.44,-8.056 -6.79,2.565 -10.67,9.54 -17.21,12.618 -5.31,3.184 -11.59,2.316 -17.47,2.475 -5.1,-0.078 -10.8,3.088 -11.1,8.661 0.21,5.469 4.85,9.491 8.7,12.844 7.14,5.082 14.73,10.386 23.59,11.757 3.57,0.598 7.05,0.083 10.23,-1.229 z"
       fill="#426598"
       fill-rule="evenodd"
       id="path360-8" /><path
       d="m 999.7251,610.95277 c 0.18,0.05 0.38,0.1 0.57,0.14 7.93,0.9 14.41,-5.86 17.07,-12.72 2.75,-6.13 2.34,-15.16 -4.26,-18.64 -0.96,-0.49 -2.04,-0.71 -3.11,-0.73 -9.27,0.36 -15.98,9.25 -17.18,17.89 -1.21,5.45 1.12,12.45 6.91,14.06 z m 32.09,9.02 c 4.72,1.26 9.77,-2.43 11.82,-6.69 4.17,-8.4 3.36,-20.59 -5.06,-26.1 -0.81,-0.44 -1.7,-0.72 -2.61,-0.84 -6.54,-0.79 -11.23,5.43 -12.63,11.16 -1.99,7.51 -0.64,17.25 6.48,21.61 0.66,0.4 1.32,0.68 2,0.86 z m -45.07,-40.52 c 8.26,1.89 16.19,-4.58 19.2,-11.909 2.67,-5.14 1.9,-13.286 -4.2,-15.543 -8.71,-2.432 -17.34,5.108 -19.92,13.014 -2.1,5.116 -0.86,12.428 4.92,14.438 z m 71.57,19 c 3.44,1.04 7.45,-0.04 9.6,-3.22 5.76,-8.51 3.19,-22.17 -6.17,-27.055 -3.95,-1.925 -8.53,0.196 -10.68,3.73 -4.58,7.565 -2.89,18.405 3.6,24.345 1.04,1.05 2.3,1.79 3.65,2.19 z m -31.46,-27.491 c 6.77,1.971 14.65,0.543 20.53,-3.288 6.48,-4.575 12.39,-10.376 16.11,-17.455 3.43,-4.875 1.07,-12.33 -4.7,-14.061 -6.91,-2.231 -14.29,0.799 -21.32,-0.872 -6.14,-0.824 -10.51,-5.419 -15.2,-8.965 -3.94,-3.239 -10.37,-4.32 -14.08,-0.153 -3.25,4.405 -2.13,10.443 -1.21,15.468 2.41,8.425 5.04,17.307 11.1,23.901 2.42,2.694 5.46,4.464 8.77,5.425 z"
       fill="#426598"
       fill-rule="evenodd"
       id="path362-0" /><path
       d="m 1024.5351,665.45277 c -0.19,0.04 -0.39,0.1 -0.58,0.15 -7.41,2.96 -9.91,11.99 -9.01,19.29 0.49,6.7 5.13,14.46 12.58,14.4 1.08,-0.02 2.14,-0.34 3.09,-0.83 8,-4.71 9.69,-15.72 6.66,-23.89 -1.52,-5.38 -6.89,-10.44 -12.74,-9.12 z m -32.54,7.26 c -4.76,1.13 -7.46,6.77 -7.25,11.49 0.32,9.37 6.8,19.73 16.82,20.59 0.92,0 1.84,-0.17 2.7,-0.49 6.14,-2.41 7.32,-10.12 5.84,-15.82 -1.8,-7.55 -7.61,-15.5 -15.95,-15.96 -0.76,-0.04 -1.48,0.03 -2.16,0.19 z m 58.89,14.33 c -8.17,2.25 -12.1,11.71 -11.27,19.59 0.08,5.79 4.62,12.6 11.06,11.7 8.82,-1.98 12.85,-12.71 11.38,-20.9 -0.58,-5.5 -5.13,-11.36 -11.17,-10.39 z m -72.03,17.18 c -3.53,0.71 -6.55,3.55 -6.94,7.38 -1.04,10.22 7.69,21.04 18.25,20.9 4.39,-0.17 7.42,-4.21 7.64,-8.34 0.45,-8.83 -6.17,-17.58 -14.7,-19.73 -1.41,-0.44 -2.87,-0.49 -4.25,-0.21 z m 40.72,9.3 c -6.89,1.48 -13.16,6.47 -16.53,12.63 -3.54,7.09 -5.99,15 -5.91,23 -0.71,5.91 4.89,11.36 10.8,10.15 7.14,-1.3 12.21,-7.47 19.19,-9.33 5.79,-2.18 11.82,-0.2 17.63,0.7 5,0.99 11.18,-1.11 12.47,-6.53 0.78,-5.42 -3.07,-10.21 -6.26,-14.2 -6.11,-6.28 -12.63,-12.86 -21.1,-15.79 -3.4,-1.23 -6.92,-1.35 -10.29,-0.63 z"
       fill="#426598"
       fill-rule="evenodd"
       id="path364-7" /><path
       d="m 1087.3151,694.37277 c 0.17,-0.1 0.33,-0.22 0.49,-0.34 5.92,-5.34 5.14,-14.68 1.76,-21.21 -2.78,-6.12 -9.82,-11.78 -16.8,-9.14 -1,0.39 -1.88,1.06 -2.61,1.85 -5.86,7.19 -3.63,18.1 2.05,24.71 3.29,4.52 10.08,7.4 15.11,4.13 z m 28,-18.09 c 4.07,-2.71 4.65,-8.94 2.81,-13.29 -3.55,-8.68 -13.22,-16.14 -22.92,-13.48 -0.86,0.32 -1.66,0.8 -2.36,1.4 -4.92,4.39 -3.35,12.02 0.02,16.85 4.31,6.46 12.51,11.9 20.49,9.45 0.73,-0.23 1.38,-0.55 1.96,-0.93 z m -60.2,6.98 c 6.88,-4.94 7.28,-15.17 3.77,-22.28 -2.08,-5.4 -8.7,-10.21 -14.43,-7.13 -7.58,4.92 -7.64,16.38 -3.42,23.55 2.45,4.95 8.75,8.87 14.08,5.86 z m 61.6,-41.09 c 3.06,-1.9 4.9,-5.61 3.94,-9.33 -2.57,-9.95 -14.51,-17.06 -24.37,-13.27 -4.05,1.68 -5.49,6.52 -4.27,10.47 2.64,8.44 11.89,14.34 20.64,13.41 1.47,-0.08 2.86,-0.54 4.06,-1.28 z m -41.43,5.4 c 5.96,-3.78 10.11,-10.63 11.13,-17.58 0.85,-7.88 0.41,-16.15 -2.43,-23.62 -1.39,-5.8 -8.54,-8.96 -13.66,-5.78 -6.24,3.7 -8.86,11.25 -14.76,15.41 -4.68,4.06 -11.01,4.29 -16.78,5.46 -5.03,0.81 -10.1,4.92 -9.43,10.46 1.15,5.35 6.42,8.5 10.8,11.14 7.91,3.77 16.31,7.68 25.26,7.49 3.62,-0.03 6.96,-1.14 9.87,-2.98 z"
       fill="#426598"
       fill-rule="evenodd"
       id="path366-9" /><path
       d="m 1114.4319,824.37207 c -0.1833,0.063 -0.3735,0.1209 -0.5647,0.1729 -7.8601,1.3717 -14.7316,-4.9992 -17.7921,-11.6909 -3.1034,-5.9552 -3.2247,-14.9935 3.1504,-18.8585 0.9297,-0.547 1.9973,-0.8311 3.0671,-0.9157 9.2754,-0.1872 16.4917,8.2948 18.2025,16.8477 1.5301,5.3715 -0.3833,12.4932 -6.0632,14.4447 z m -31.5048,10.8969 c -4.6433,1.5344 -9.8997,-1.8506 -12.1996,-5.978 -4.6493,-8.1439 -4.5608,-20.3622 3.5126,-26.3539 0.7825,-0.4881 1.6532,-0.8214 2.5576,-0.9956 6.4871,-1.1706 11.5373,4.7649 13.2644,10.3977 2.4318,7.3752 1.6599,17.1859 -5.1953,21.958 -0.628,0.4323 -1.2764,0.7518 -1.9399,0.9711 z m 42.6031,-43.1047 c -8.1331,2.3736 -16.4359,-3.6177 -19.8694,-10.7579 -2.9689,-4.9736 -2.6776,-13.1512 3.2747,-15.7634 8.5505,-2.9419 17.6137,4.0762 20.6563,11.8168 2.3913,4.9838 1.5908,12.3591 -4.0616,14.7045 z m -70.3266,23.1817 c -3.3772,1.2415 -7.4354,0.4048 -9.7748,-2.6426 -6.2505,-8.1548 -4.4952,-21.9447 4.5685,-27.3729 3.8227,-2.1542 8.5196,-0.3077 10.8759,3.0935 5.0201,7.2818 3.9696,18.1991 -2.1608,24.5134 -0.9683,1.1137 -2.1878,1.9211 -3.5094,2.4069 z m 29.7851,-29.2947 c -6.6463,2.3627 -14.598,1.4068 -20.694,-2.0709 -6.7374,-4.1849 -12.9777,-9.6276 -17.1075,-16.4744 -3.7096,-4.6647 -1.7989,-12.2449 3.8661,-14.3141 6.7634,-2.6349 14.3134,-0.045 21.231,-2.1278 6.0777,-1.1841 10.1652,-6.0288 14.6445,-9.8453 3.7363,-3.4657 10.0911,-4.9246 14.0428,-0.9829 3.5037,4.2051 2.7427,10.2986 2.1207,15.3694 -1.9094,8.5526 -4.0057,17.5733 -9.6711,24.5141 -2.2534,2.8313 -5.1867,4.7779 -8.4325,5.9319 z"
       fill="#426598"
       fill-rule="evenodd"
       id="path368-5" /><path
       d="m 1066.5349,941.71149 c -0.1869,-0.051 -0.3767,-0.1104 -0.5639,-0.1752 -7.2672,-3.2941 -9.3561,-12.4288 -8.1156,-19.6819 0.7903,-6.6686 5.7813,-14.20487 13.2259,-13.80727 1.0763,0.072 2.1184,0.4383 3.05,0.971 7.7693,5.07007 8.9541,16.14327 5.5498,24.17387 -1.7614,5.3001 -7.3539,10.1067 -13.1463,8.5198 z m -32.1692,-8.7426 c -4.7009,-1.3477 -7.1374,-7.1055 -6.7127,-11.8113 0.7458,-9.3479 7.7014,-19.39347 17.7472,-19.79657 0.9215,0.037 1.8286,0.2526 2.674,0.6181 6.0195,2.6868 6.8488,10.43587 5.103,16.06277 -2.1451,7.4637 -8.3092,15.1351 -16.6614,15.2166 -0.7625,0 -1.4781,-0.098 -2.1499,-0.2903 z m 59.4816,-11.6178 c -8.0571,-2.6201 -11.5425,-12.2474 -10.3574,-20.08107 0.3485,-5.78195 5.1955,-12.37455 11.5851,-11.18015 8.7221,2.3857 12.2574,13.28965 10.4112,21.39932 -0.8315,5.4649 -5.6473,11.108 -11.6389,9.8619 z m -71.166,-20.46017 c -3.4898,-0.87655 -6.3716,-3.85385 -6.588,-7.68955 -0.571,-10.2588 8.647,-20.6641 19.1936,-20.0437 4.372,0.3733 7.2127,4.5448 7.2438,8.6823 0.046,8.8444 -6.9714,17.2732 -15.5935,19.03725 -1.4275,0.3748 -2.8898,0.355 -4.2554,0.012 z m 41.1116,-7.42745 c -6.8224,-1.7915 -12.8542,-7.0605 -15.9321,-13.3678 -3.2095,-7.2529 -5.2998,-15.2651 -4.8554,-23.2487 -0.4374,-5.9438 5.4111,-11.1307 11.2574,-9.6493 7.0726,1.6325 11.8519,8.0253 18.7409,10.201 5.6887,2.4452 11.7951,0.7446 17.6459,0.1144 5.0394,-0.759 11.1119,1.6152 12.1567,7.098 0.5263,5.4481 -3.5349,10.0542 -6.9052,13.8937 -6.3952,5.9911 -13.2086,12.2637 -21.7994,14.8073 -3.4566,1.0701 -6.9768,1.0262 -10.3088,0.1514 z"
       fill="#426598"
       fill-rule="evenodd"
       id="path370-4" /><path
       d="m 1138.919,1009.5715 c -0.1686,0.096 -0.345,0.1874 -0.5233,0.2736 -7.475,2.7907 -15.3989,-2.2112 -19.6353,-8.2277 -4.1435,-5.28449 -5.9212,-14.14711 -0.3635,-19.11631 0.8135,-0.7083 1.8108,-1.1835 2.8469,-1.4629 9.0835,-1.8861 17.7338,5.1277 20.9849,13.22152 2.4898,4.9995 1.9158,12.35139 -3.3096,15.31199 z m -28.9702,16.4929 c -4.283,2.3604 -10.0713,0 -13.0894,-3.6379 -6.0648,-7.1525 -8.2199,-19.1795 -1.383,-26.55099 0.6796,-0.6234 1.4744,-1.1107 2.3315,-1.448 6.1621,-2.3411 12.2157,2.567 14.9471,7.78719 3.7438,6.8037 4.7853,16.5895 -1.0778,22.5385 -0.5381,0.5402 -1.1168,0.9733 -1.7288,1.3106 z m 33.97,-50.19031 c -7.5595,3.8257 -16.8207,-0.5404 -21.506,-6.9293 -3.8312,-4.3444 -5.0454,-12.4365 0.3265,-16.0967 7.8655,-4.4609 18.0626,0.7749 22.4739,7.8258 3.2652,4.4604 3.8317,11.8574 -1.2944,15.2002 z m -64.8786,35.69281 c -3.0921,1.8402 -7.2349,1.7623 -10.0938,-0.8041 -7.6408,-6.8694 -8.4457,-20.74719 -0.5319,-27.74641 3.3624,-2.8191 8.3184,-1.8658 11.2589,1.0453 6.271,6.23692 7.2416,17.16161 2.3739,24.49361 -0.7475,1.2725 -1.7981,2.2899 -3.008,3.01 z m 23.9038,-34.26281 c -6.0999,3.5422 -14.092,4.0616 -20.7227,1.7616 -7.3909,-2.8776 -14.524,-7.0828 -19.84,-13.0555 -4.5025,-3.9048 -4.0153,-11.7069 1.1739,-14.7805 6.165,-3.8313 14.062,-2.6707 20.48,-5.9875 5.7572,-2.2792 8.8863,-7.7917 12.5893,-12.3654 3.0369,-4.0924 9.0161,-6.6926 13.624,-3.543 4.2159,3.4908 4.5859,9.6204 4.9049,14.7193 -0.3076,8.7577 -0.713,18.01 -5.0086,25.8725 -1.6956,3.1967 -4.2219,5.6484 -7.2008,7.3785 z"
       fill="#426598"
       fill-rule="evenodd"
       id="path372-9" /><path
       d="m 495.2751,1233.1728 c -2.19,-1.14 -2.08,-1.03 -5.56,-11.7 -3.47,-10.67 -18.05,-49.26 -15.28,-52.29 2.77,-3.04 15.31,38.34 19.87,40.38 4.55,2.04 20.25,-40.29 22.56,-39.32 2.31,0.98 -12.12,42.93 -8.7,45.18 3.41,2.25 43.02,-21.21 43.54,-18.53 0.52,2.68 -39.03,26.11 -48.86,31.43 -4.9,2.65 -5.38,6 -7.57,4.85 z"
       fill="#e11134"
       fill-rule="evenodd"
       id="path374-3" /><path
       d="m 415.0151,1154.7828 c -2.47,0.09 -2.33,0.13 -10.62,-7.43 -8.29,-7.55 -40.05,-33.88 -39.14,-37.89 0.91,-4.01 32.26,25.75 37.23,25.28 4.97,-0.48 -2.31,-45.04 0.18,-45.33 2.49,-0.3 10.69,43.3 14.77,43.57 4.08,0.27 26.9,-39.71 28.68,-37.64 1.78,2.08 -21.01,41.99 -26.93,51.48 -2.94,4.73 -1.71,7.87 -4.17,7.96 z"
       fill="#e11134"
       fill-rule="evenodd"
       id="path376-3" /><path
       d="m 486.9851,1055.6428 c -2.26,-0.99 -2.15,-0.9 -6.33,-11.31 -4.18,-10.41 -21.3,-47.93999 -18.74,-51.15999 2.56,-3.21 17.84,37.23999 22.52,38.96999 4.68,1.74 17.52,-41.54999 19.89,-40.72999 2.37,0.82 -9.23,43.63999 -5.67,45.65999 3.56,2.01 41.51,-24.04 42.21,-21.4 0.7,2.64 -37.2,28.66 -46.66,34.62 -4.71,2.98 -4.96,6.34 -7.22,5.35 z"
       fill="#e11134"
       fill-rule="evenodd"
       id="path378-9" /><path
       d="m 527.5651,935.57279 c -1.99,-1.46 -1.91,-1.34 -3.74,-12.41 -1.84,-11.06 -10.49,-51.40002 -7.3,-53.99002 3.19,-2.59 9.41,40.20002 13.61,42.90002 4.19,2.71 26.05,-36.81002 28.19,-35.50002 2.13,1.31 -18.41,40.64002 -15.37,43.37002 3.04,2.74 45.71,-14.53997 45.83,-11.80997 0.11,2.72997 -42.49,19.97997 -53.01,23.76997 -5.25,1.89 -6.22,5.12 -8.21,3.67 z"
       fill="#e11134"
       fill-rule="evenodd"
       id="path380-9" /><path
       d="m 433.5451,953.17279 c -2.39,-0.63 -2.26,-0.55 -8.01,-10.18 -5.76,-9.63 -28.54,-44.02002 -26.52,-47.59002 2.03,-3.58 23.44,33.98002 28.34,34.96002 4.89,0.99 10.8,-43.78002 13.27,-43.34002 2.47,0.44 -2.28,44.55002 1.54,45.98002 3.83,1.44 37.24,-30.22997 38.35,-27.72997 1.1,2.5 -32.26,34.11997 -40.67,41.48997 -4.19,3.68 -3.91,7.04 -6.3,6.41 z"
       fill="#e11134"
       fill-rule="evenodd"
       id="path382-0" /><path
       d="m 484.2251,807.86277 c -1.9,-1.58 -1.82,-1.45 -2.98,-12.61 -1.16,-11.16 -7.33,-51.95 -3.99,-54.34 3.35,-2.39 6.94,40.7 10.97,43.65 4.02,2.96 28.24,-35.15 30.3,-33.71 2.05,1.44 -20.85,39.43 -17.98,42.35 2.87,2.91 46.51,-11.73 46.46,-9 -0.05,2.73 -43.63,17.36 -54.36,20.5 -5.35,1.56 -6.52,4.73 -8.42,3.16 z"
       fill="#e11134"
       fill-rule="evenodd"
       id="path384-5" /><path
       d="m 498.4951,1408.4928 c -2.42,-0.49 -2.29,-0.42 -8.6,-9.69 -6.31,-9.28 -31.08,-42.27 -29.26,-45.96 1.81,-3.69 25.39,32.55 30.34,33.24 4.94,0.7 8.21,-44.34 10.71,-44.05 2.49,0.3 0.33,44.61 4.23,45.82 3.91,1.21 35.4,-32.37 36.65,-29.94 1.25,2.43 -30.2,35.96 -38.16,43.81 -3.97,3.91 -3.49,7.26 -5.91,6.77 z"
       fill="#e11134"
       fill-rule="evenodd"
       id="path386-7" /><path
       d="m 612.4751,792.36277 c -1.8,-1.68 -1.73,-1.56 -2.22,-12.76 -0.5,-11.21 -4.23,-52.29 -0.75,-54.48 3.49,-2.19 4.5,41.04 8.35,44.23 3.84,3.18 30.29,-33.41 32.25,-31.85 1.97,1.56 -23.16,38.12 -20.47,41.2 2.69,3.08 47.13,-8.93 46.92,-6.21 -0.22,2.72 -44.59,14.72 -55.49,17.22 -5.43,1.24 -6.79,4.34 -8.59,2.65 z"
       fill="#e11134"
       fill-rule="evenodd"
       id="path388-8" /><path
       d="m 550.6751,680.23277 c -1.91,-1.57 -1.83,-1.45 -3.02,-12.6 -1.19,-11.16 -7.48,-51.93 -4.14,-54.33 3.34,-2.4 7.05,40.68 11.09,43.62 4.03,2.94 28.15,-35.23 30.2,-33.8 2.06,1.43 -20.73,39.5 -17.86,42.4 2.88,2.91 46.48,-11.86 46.44,-9.13 -0.05,2.74 -43.58,17.48 -54.31,20.65 -5.34,1.58 -6.5,4.76 -8.4,3.19 z"
       fill="#e11134"
       fill-rule="evenodd"
       id="path390-5" /><path
       d="m 673.7851,677.38277 c -2.2,-1.11 -2.1,-1.01 -5.73,-11.62 -3.64,-10.61 -18.8,-48.97 -16.08,-52.05 2.73,-3.08 15.89,38.1 20.48,40.07 4.59,1.98 19.64,-40.59 21.96,-39.65 2.33,0.94 -11.46,43.11 -8.01,45.31 3.45,2.19 42.69,-21.87 43.25,-19.2 0.56,2.68 -38.62,26.7 -48.37,32.17 -4.87,2.73 -5.29,6.08 -7.5,4.97 z"
       fill="#e11134"
       fill-rule="evenodd"
       id="path392-1" /><path
       d="m 617.7351,560.96277 c -2.14,-1.228 -2.04,-1.12 -5.08,-11.916 -3.05,-10.797 -16.07,-49.94 -13.18,-52.864 2.89,-2.924 13.76,38.922 18.23,41.147 4.47,2.224 21.85,-39.451 24.12,-38.383 2.27,1.069 -13.83,42.41 -10.51,44.794 3.33,2.385 43.84,-19.476 44.25,-16.775 0.42,2.701 -40.04,24.529 -50.07,29.451 -5.01,2.454 -5.62,5.775 -7.76,4.546 z"
       fill="#e11134"
       fill-rule="evenodd"
       id="path394-7" /><path
       d="m 749.0851,524.65177 c -2.1,-1.301 -2,-1.189 -4.68,-12.084 -2.67,-10.895 -14.34,-50.463 -11.35,-53.286 2.99,-2.823 12.42,39.373 16.81,41.75 4.39,2.376 23.19,-38.676 25.43,-37.53 2.23,1.146 -15.28,41.909 -12.04,44.406 3.23,2.498 44.47,-17.957 44.79,-15.243 0.33,2.713 -40.85,23.137 -51.06,27.711 -5.08,2.28 -5.81,5.578 -7.9,4.276 z"
       fill="#e11134"
       fill-rule="evenodd"
       id="path396-6" /><path
       d="m 343.0951,831.17277 c 0,-107.42 87.3,-194.5 195,-194.5 107.7,0 195,87.08 195,194.5 0,107.42002 -87.3,194.50003 -195,194.50003 -107.7,0 -195,-87.08001 -195,-194.50003 z"
       stroke="#000000"
       stroke-width="22.9167"
       stroke-miterlimit="8"
       fill="none"
       fill-rule="evenodd"
       id="path402-1"
       style="fill:#ffffff;fill-opacity:1" /><path
       d="m 653.1351,980.76279 12.42,-10.87 106.18,121.28001 -12.41,10.87 z"
       fill-rule="evenodd"
       id="path404-8" /><path
       d="m 746.7351,1114.4528 c -3.14,-3.61 -2.76,-9.09 0.85,-12.22 l 26.15,-22.73 c 3.61,-3.14 9.08,-2.76 12.22,0.85 l 201.19,231.44 c 3.13,3.61 2.75,9.08 -0.86,12.22 l -26.15,22.73 c -3.61,3.14 -9.08,2.75 -12.22,-0.86 z"
       fill-rule="evenodd"
       id="path406-2" /><g
       id="g1438"
       clip-path="url(#clipPath8215)"
       transform="translate(-2726.0003,-275.60335)"><path
         d="M 92.907,0.00148849 C 92.6159,0.00519242 92.3175,0.0194543 92.0208,0.0427163 80.2091,2.08154 73.715,14.5714 72.7736,25.5857 c -1.3749,9.994 3.0291,22.8396 14.0027,25.079 1.5919,0.303 3.2457,0.1645 4.8017,-0.2575 13.214,-4.4308 19.127,-20.0809 17.217,-33.0445 C 108.24,8.99053 101.929,-0.113991 92.907,0.0010731 Z M 42.8299,0.537277 C 35.4855,0.717557 29.7643,8.16632 28.6007,15.1685 c -2.4533,13.8726 3.8571,31.1096 18.3094,35.4975 1.3539,0.2944 2.7542,0.3248 4.1215,0.1134 C 60.7997,49.1513 64.938,38.1994 64.5295,29.3579 64.2354,17.6951 58.1772,4.20928 46.0654,0.929892 44.9582,0.636313 43.8794,0.512595 42.8299,0.53835 Z M 124.909,39.9386 c -12.705,0.76 -21.416,13.4374 -22.658,25.2749 -1.681,8.5378 2.871,19.9569 12.612,20.6384 13.583,-0.1675 22.85,-14.682 23.235,-27.1708 0.859,-8.2597 -4.007,-18.2865 -13.189,-18.7425 z M 13.7029,42.7515 C 8.29757,42.705 2.98125,45.9428 1.21494,51.4376 -3.49768,66.1361 5.96582,84.7523 21.5336,87.8418 28.031,88.9536 33.7397,83.964 35.3507,77.9604 38.7649,65.1196 31.7525,50.2097 19.885,44.3819 17.9517,43.2968 15.818,42.7722 13.7029,42.7541 Z m 56.9582,26.357 c -10.5966,0.0227 -21.3599,5.4001 -28.2215,13.405 -7.4111,9.3301 -13.4821,20.1875 -15.8574,31.9625 -2.8854,8.476 3.6543,18.23 12.7145,18.289 10.9,0.303 20.2679,-7.182 31.1066,-7.738 9.1958,-1.402 17.4297,3.381 25.6974,6.512 7.0393,3.01 16.7663,1.857 20.3603,-5.719 2.827,-7.722 -1.334,-15.955 -4.781,-22.813 C 104.65,91.8772 97.1178,80.1791 85.591,73.23 80.9707,70.366 75.8364,69.0976 70.6611,69.1085 Z"
         fill="#426598"
         fill-rule="evenodd"
         transform="matrix(-0.954785,-0.297297,-0.297297,0.954785,3250.32,1188.81)"
         id="path408" /><path
         d="m 3137.75,1026.09 c -0.28,0.09 -0.56,0.2 -0.84,0.31 -10.67,5.45 -13.15,19.31 -10.78,30.11 1.66,9.95 9.68,20.9 20.83,19.78 1.61,-0.19 3.14,-0.81 4.5,-1.68 11.3,-8.15 12.3,-24.85 6.62,-36.66 -3.02,-7.83 -11.75,-14.65 -20.33,-11.86 z m -47.66,15.4 c -6.95,2.36 -10.2,11.17 -9.23,18.2 1.78,13.98 12.93,28.56 28.03,28.45 1.38,-0.12 2.73,-0.51 3.97,-1.12 8.84,-4.45 9.54,-16.14 6.52,-24.46 -3.75,-11.05 -13.54,-22.12 -26.08,-21.65 -1.14,0.04 -2.21,0.25 -3.21,0.58 z m 90.09,13.22 c -11.91,4.5 -16.46,19.2 -14.12,30.87 0.93,8.65 8.67,18.2 18.17,15.95 12.92,-4.19 17.46,-20.81 14.11,-32.85 -1.63,-8.14 -9.26,-16.26 -18.16,-13.97 z m -105.35,35.75 c -5.17,1.56 -9.28,6.23 -9.34,12 -0.13,15.44 14.44,30.4 30.23,28.72 6.53,-0.87 10.5,-7.33 10.25,-13.54 -0.56,-13.28 -11.68,-25.43 -24.75,-27.46 -2.17,-0.47 -4.36,-0.33 -6.39,0.28 z m 62.22,8.23 c -10.11,3.17 -18.79,11.5 -22.96,21.19 -4.3,11.11 -6.87,23.28 -5.64,35.23 -0.23,8.95 8.91,16.32 17.58,13.68 10.5,-2.95 17.22,-12.88 27.4,-16.63 8.36,-4.08 17.65,-1.96 26.47,-1.43 7.62,0.78 16.56,-3.21 17.74,-11.51 0.41,-8.21 -6.02,-14.84 -11.35,-20.36 -10.02,-8.54 -20.69,-17.47 -33.76,-20.67 -5.26,-1.37 -10.54,-1.05 -15.48,0.5 z"
         fill="#426598"
         fill-rule="evenodd"
         id="path410" /><path
         d="m 3230.47,864.255 c -0.28,-0.08 -0.57,-0.153 -0.86,-0.217 -11.9,-1.47 -21.73,8.604 -25.82,18.873 -4.21,9.168 -3.72,22.738 6.14,28.06 1.43,0.751 3.06,1.098 4.67,1.144 13.93,-0.413 24.12,-13.679 26.05,-26.64 1.89,-8.175 -1.51,-18.717 -10.18,-21.22 z m -48.09,-13.992 c -7.08,-1.955 -14.71,3.518 -17.85,9.883 -6.37,12.567 -5.32,30.893 7.24,39.279 1.21,0.674 2.54,1.109 3.91,1.302 9.82,1.271 16.96,-8.012 19.13,-16.593 3.09,-11.248 1.2,-25.911 -9.44,-32.558 -0.98,-0.601 -1.97,-1.032 -2.99,-1.312 z m 67.15,61.487 c -12.38,-2.953 -24.39,6.658 -29.01,17.629 -4.08,7.684 -3.03,19.932 6.1,23.406 13.05,3.774 26.12,-7.434 30.11,-19.276 3.21,-7.656 1.46,-18.663 -7.2,-21.759 z m -107.25,-29.519 c -5.16,-1.61 -11.19,-0.051 -14.47,4.697 -8.77,12.703 -5.1,33.262 8.9,40.729 5.9,2.946 12.81,-0.176 16.09,-5.456 6.99,-11.301 4.59,-27.603 -5.08,-36.619 -1.53,-1.598 -3.42,-2.718 -5.44,-3.348 z m 46.88,41.725 c -10.15,-3.047 -22.01,-1.018 -30.89,4.656 -9.8,6.784 -18.76,15.417 -24.44,25.999 -5.22,7.277 -1.78,18.507 6.87,21.188 10.35,3.447 21.48,-1.004 32.02,1.604 9.2,1.321 15.7,8.285 22.71,13.676 5.86,4.92 15.51,6.634 21.14,0.424 4.94,-6.572 3.34,-15.658 2.03,-23.22 -3.5,-12.689 -7.32,-26.067 -16.34,-36.057 -3.6,-4.08 -8.14,-6.781 -13.1,-8.27 z"
         fill="#426598"
         fill-rule="evenodd"
         id="path412" /><path
         d="m 3252.34,1123.58 c 0.26,-0.11 0.53,-0.24 0.8,-0.37 10.16,-6.37 11.43,-20.39 8.12,-30.94 -2.51,-9.77 -11.46,-19.98 -22.46,-17.9 -1.59,0.33 -3.07,1.08 -4.35,2.06 -10.54,9.11 -10.08,25.84 -3.4,37.11 3.69,7.54 12.98,13.57 21.29,10.04 z m 46.13,-19.48 c 6.73,-2.96 9.2,-12.02 7.62,-18.94 -2.99,-13.76 -15.37,-27.32 -30.4,-25.9 -1.37,0.24 -2.67,0.74 -3.86,1.46 -8.42,5.21 -8.1,16.91 -4.37,24.94 4.7,10.68 15.42,20.86 27.87,19.3 1.13,-0.15 2.18,-0.44 3.14,-0.86 z m -90.89,-5.34 c 11.47,-5.52 14.72,-20.56 11.38,-31.98 -1.68,-8.54 -10.22,-17.38 -19.49,-14.32 -12.51,5.31 -15.58,22.25 -11.2,33.96 2.34,7.97 10.64,15.4 19.31,12.34 z m 101.84,-44.77 c 5.02,-2.01 8.71,-7.02 8.26,-12.77 -1.21,-15.39 -17.03,-29.03 -32.61,-25.98 -6.43,1.43 -9.82,8.21 -9.04,14.38 1.71,13.18 13.86,24.31 27.05,25.21 2.2,0.27 4.37,-0.06 6.33,-0.84 z m -62.7,-2.79 c 9.79,-4.04 17.71,-13.1 21.03,-23.11 3.32,-11.44 4.82,-23.79 2.55,-35.585 -0.54,-8.937 -10.29,-15.483 -18.7,-12.102 -10.2,3.852 -16.03,14.33 -25.85,18.954 -7.97,4.783 -17.41,3.483 -26.24,3.723 -7.66,-0.12 -16.22,4.63 -16.68,13.01 0.32,8.21 7.29,14.25 13.08,19.29 10.72,7.64 22.13,15.61 35.43,17.67 5.36,0.89 10.59,0.12 15.38,-1.85 z"
         fill="#426598"
         fill-rule="evenodd"
         id="path414" /><path
         d="m 3448.65,1345.44 c 0.21,-0.2 0.42,-0.41 0.62,-0.63 7.28,-9.52 3.56,-23.1 -3.23,-31.82 -5.78,-8.27 -17.74,-14.7 -27.32,-8.89 -1.37,0.86 -2.49,2.08 -3.34,3.45 -6.69,12.23 -0.4,27.73 9.81,35.95 6.1,5.76 16.91,8.15 23.46,1.94 z m 36.38,-34.42 c 5.26,-5.12 4.4,-14.47 0.5,-20.4 -7.63,-11.84 -23.97,-20.21 -37.55,-13.61 -1.2,0.71 -2.25,1.64 -3.11,2.72 -6.06,7.83 -1.65,18.68 4.65,24.89 8.14,8.36 21.75,14.14 32.87,8.31 1.01,-0.53 1.88,-1.17 2.64,-1.91 z m -87,26.86 c 8.81,-9.19 6.59,-24.41 -0.55,-33.94 -4.56,-7.41 -15.66,-12.7 -23.27,-6.58 -9.85,9.35 -6.79,26.3 1.41,35.73 4.98,6.64 15.36,10.69 22.41,4.79 z m 79.69,-77.62 c 4,-3.64 5.7,-9.63 3.26,-14.86 -6.53,-13.98 -26.12,-21.22 -39.64,-12.91 -5.52,3.6 -6.32,11.14 -3.43,16.64 6.22,11.74 21.5,17.92 34.16,14.13 2.16,-0.51 4.08,-1.58 5.65,-3 z m -59.7,19.36 c 7.76,-7.22 12,-18.48 11.6,-29.01 -0.9,-11.88 -3.82,-23.97 -10.08,-34.23 -3.64,-8.18 -15.07,-10.89 -21.76,-4.78 -8.2,7.18 -9.99,19.04 -17.56,26.81 -5.8,7.28 -15.09,9.36 -23.28,12.68 -7.21,2.58 -13.57,10.03 -11.06,18.03 3.17,7.59 11.82,10.8 19.01,13.49 12.72,3.39 26.19,6.86 39.37,4.13 5.34,-1.04 9.97,-3.6 13.76,-7.12 z"
         fill="#426598"
         fill-rule="evenodd"
         id="path416" /><path
         d="m 3333.29,1264.89 c 0.21,-0.2 0.42,-0.41 0.62,-0.63 7.28,-9.52 3.56,-23.1 -3.23,-31.82 -5.78,-8.27 -17.74,-14.7 -27.32,-8.89 -1.37,0.86 -2.49,2.09 -3.34,3.45 -6.69,12.23 -0.4,27.73 9.81,35.95 6.1,5.76 16.91,8.16 23.46,1.94 z m 36.38,-34.41 c 5.26,-5.13 4.4,-14.48 0.5,-20.41 -7.63,-11.84 -23.97,-20.2 -37.55,-13.6 -1.2,0.7 -2.25,1.63 -3.11,2.71 -6.06,7.83 -1.65,18.68 4.65,24.89 8.14,8.36 21.75,14.14 32.87,8.32 1.01,-0.54 1.88,-1.18 2.64,-1.91 z m -87,26.85 c 8.81,-9.19 6.59,-24.41 -0.55,-33.94 -4.56,-7.41 -15.66,-12.69 -23.27,-6.58 -9.85,9.36 -6.79,26.3 1.41,35.73 4.98,6.64 15.36,10.69 22.41,4.79 z m 79.69,-77.62 c 4,-3.64 5.7,-9.62 3.26,-14.86 -6.53,-13.98 -26.12,-21.21 -39.64,-12.9 -5.52,3.59 -6.32,11.13 -3.43,16.63 6.22,11.75 21.5,17.92 34.16,14.14 2.16,-0.52 4.08,-1.59 5.65,-3.01 z m -59.7,19.36 c 7.76,-7.22 12,-18.47 11.6,-29.01 -0.9,-11.88 -3.82,-23.97 -10.08,-34.23 -3.64,-8.18 -15.07,-10.89 -21.76,-4.78 -8.2,7.18 -9.99,19.04 -17.56,26.81 -5.8,7.28 -15.09,9.36 -23.28,12.68 -7.21,2.58 -13.57,10.03 -11.06,18.03 3.17,7.59 11.82,10.8 19.01,13.49 12.72,3.39 26.19,6.86 39.37,4.13 5.34,-1.04 9.97,-3.6 13.76,-7.12 z"
         fill="#426598"
         fill-rule="evenodd"
         id="path418" /><path
         d="m 3274.32,1300.88 c -3.39,-1.49 -3.22,-1.34 -9.5,-16.98 -6.27,-15.64 -32,-72.03 -28.15,-76.86 3.85,-4.83 26.79,55.94 33.83,58.55 7.03,2.6 26.32,-62.43 29.88,-61.2 3.56,1.23 -13.86,65.56 -8.52,68.59 5.34,3.03 62.36,-36.11 63.41,-32.14 1.05,3.97 -55.88,43.05 -70.09,52.01 -7.08,4.47 -7.46,9.53 -10.86,8.03 z"
         fill="#e11134"
         fill-rule="evenodd"
         id="path420" /><path
         d="m 3400.56,1108.12 c -2.99,-2.18 -2.86,-2.01 -5.63,-18.63 -2.76,-16.62 -15.75,-77.22 -10.95,-81.11 4.79,-3.89 14.13,60.39 20.43,64.45 6.31,4.06 39.14,-55.3 42.35,-53.33 3.22,1.97 -27.64,61.04 -23.07,65.15 4.56,4.11 68.66,-21.85 68.83,-17.75 0.18,4.1 -63.83,30.02 -79.63,35.72 -7.88,2.83 -9.34,7.69 -12.33,5.5 z"
         fill="#e11134"
         fill-rule="evenodd"
         id="path422" /><path
         d="m 3107.65,1326.06 c -3.58,-0.95 -3.4,-0.83 -12.04,-15.3 -8.65,-14.46 -42.87,-66.13 -39.83,-71.5 3.05,-5.37 35.21,51.06 42.57,52.53 7.35,1.48 16.23,-65.78 19.94,-65.11 3.71,0.66 -3.44,66.92 2.32,69.08 5.75,2.15 55.94,-45.42 57.6,-41.67 1.66,3.76 -48.46,51.26 -61.09,62.33 -6.3,5.52 -5.88,10.58 -9.47,9.64 z"
         fill="#e11134"
         fill-rule="evenodd"
         id="path424" /><path
         d="m 3176.96,1120.91 c -2.86,-2.36 -2.74,-2.18 -4.48,-18.94 -1.75,-16.76 -11.02,-78.04 -5.99,-81.63 5.03,-3.58 10.42,61.14 16.47,65.58 6.05,4.44 42.44,-52.81 45.52,-50.65 3.09,2.16 -31.32,59.24 -27.01,63.62 4.31,4.38 69.87,-17.62 69.8,-13.51 -0.08,4.1 -65.55,26.07 -81.67,30.79 -8.03,2.35 -9.79,7.11 -12.64,4.74 z"
         fill="#e11134"
         fill-rule="evenodd"
         id="path426" /><path
         d="m 3296.02,944.119 c -2.86,-2.358 -2.74,-2.172 -4.53,-18.928 -1.79,-16.757 -11.24,-78.007 -6.22,-81.61 5.01,-3.603 10.59,61.109 16.65,65.528 6.06,4.419 42.29,-52.932 45.38,-50.778 3.09,2.154 -31.15,59.332 -26.83,63.7 4.32,4.368 69.82,-17.817 69.76,-13.713 -0.07,4.105 -65.47,26.256 -81.58,31.02 -8.03,2.375 -9.77,7.139 -12.63,4.781 z"
         fill="#e11134"
         fill-rule="evenodd"
         id="path428" /></g><path
       d="m 343.9191,831.13371 c 0,-106.89862 86.876,-193.55587 194.056,-193.55587 107.18,0 194.056,86.65725 194.056,193.55587 0,106.89858 -86.876,193.55609 -194.056,193.55609 -107.18,0 -194.056,-86.65751 -194.056,-193.55609 z"
       stroke="#000000"
       stroke-width="22.9167"
       stroke-miterlimit="8"
       fill="none"
       fill-rule="evenodd"
       id="path402-1-9"
       style="fill:none;fill-opacity:1;stroke-width:22.805;stroke-dasharray:none" /></g><metadata
     id="metadata16812"><rdf:RDF><cc:Work
         rdf:about=""><dc:title>Microwalk Project</dc:title><dc:creator><cc:Agent><dc:title>Jan Wichelmann</dc:title></cc:Agent></dc:creator><cc:license
           rdf:resource="http://creativecommons.org/licenses/by-sa/4.0/" /></cc:Work><cc:License
         rdf:about="http://creativecommons.org/licenses/by-sa/4.0/"><cc:permits
           rdf:resource="http://creativecommons.org/ns#Reproduction" /><cc:permits
           rdf:resource="http://creativecommons.org/ns#Distribution" /><cc:requires
           rdf:resource="http://creativecommons.org/ns#Notice" /><cc:requires
           rdf:resource="http://creativecommons.org/ns#Attribution" /><cc:permits
           rdf:resource="http://creativecommons.org/ns#DerivativeWorks" /><cc:requires
           rdf:resource="http://creativecommons.org/ns#ShareAlike" /></cc:License></rdf:RDF></metadata></svg>
